<svg width="23" height="24" viewBox="0 0 23 24" fill="none" xmlns="http://www.w3.org/2000/svg">
<g clip-path="url(#clip0_2_559)">
<path d="M5.39062 0.5C5.98616 0.5 6.46875 0.982589 6.46875 1.57812V3.375H16.5312V1.57812C16.5312 0.982589 17.0138 0.5 17.6094 0.5C18.2049 0.5 18.6875 0.982589 18.6875 1.57812V3.375H19.0469C21.2298 3.375 23 5.14518 23 7.32812V19.5469C23 21.7298 21.2298 23.5 19.0469 23.5H3.95312C1.77018 23.5 0 21.7298 0 19.5469V7.32812C0 5.14518 1.77018 3.375 3.95312 3.375H4.3125V1.57812C4.3125 0.982589 4.79509 0.5 5.39062 0.5ZM3.95312 8.40625C2.96125 8.40625 2.15625 9.21125 2.15625 10.2031V19.5469C2.15625 20.5387 2.96125 21.3438 3.95312 21.3438H19.0469C20.0387 21.3438 20.8438 20.5387 20.8438 19.5469V10.2031C20.8438 9.21125 20.0387 8.40625 19.0469 8.40625H3.95312Z" fill="#F7B50B"/>
<path opacity="0.5" d="M7.1875 12.0513C7.1875 13.0431 6.3825 13.8481 5.39062 13.8481C4.39875 13.8481 3.59375 13.0431 3.59375 12.0513C3.59375 11.0594 4.39875 10.2544 5.39062 10.2544C6.3825 10.2544 7.1875 11.0594 7.1875 12.0513ZM7.1875 17.3967C7.1875 18.3886 6.3825 19.1936 5.39062 19.1936C4.39875 19.1936 3.59375 18.3886 3.59375 17.3967C3.59375 16.4048 4.39875 15.5998 5.39062 15.5998C6.3825 15.5998 7.1875 16.4048 7.1875 17.3967ZM11.1406 13.8481C12.1325 13.8481 12.9375 13.0431 12.9375 12.0513C12.9375 11.0594 12.1325 10.2544 11.1406 10.2544C10.1488 10.2544 9.34375 11.0594 9.34375 12.0513C9.34375 13.0431 10.1488 13.8481 11.1406 13.8481ZM12.9375 17.3967C12.9375 18.3886 12.1325 19.1936 11.1406 19.1936C10.1488 19.1936 9.34375 18.3886 9.34375 17.3967C9.34375 16.4048 10.1488 15.5998 11.1406 15.5998C12.1325 15.5998 12.9375 16.4048 12.9375 17.3967ZM16.8906 13.8481C17.8825 13.8481 18.6875 13.0431 18.6875 12.0513C18.6875 11.0594 17.8825 10.2544 16.8906 10.2544C15.8988 10.2544 15.0938 11.0594 15.0938 12.0513C15.0938 13.0431 15.8988 13.8481 16.8906 13.8481Z" fill="#F7B50B"/>
</g>
<defs>
<clipPath id="clip0_2_559">
<rect width="23" height="23" fill="white" transform="translate(0 0.5)"/>
</clipPath>
</defs>
</svg>
