<svg width="23" height="26" viewBox="0 0 23 26" fill="none" xmlns="http://www.w3.org/2000/svg">
<g clip-path="url(#clip0_2_428)">
<path d="M12.3729 1.96316H18.5057C20.6175 1.96316 22.33 3.67564 22.33 5.78743V20.1389C22.33 22.2507 20.6175 23.9632 18.5057 23.9632H12.3729V24.3833C12.3729 24.9595 11.9061 25.4263 11.33 25.4263C10.7538 25.4263 10.287 24.9595 10.287 24.3833V23.9632H4.15423C2.04244 23.9632 0.329956 22.2507 0.329956 20.1389V5.78743C0.329956 3.67564 2.04244 1.96316 4.15423 1.96316H10.287V1.54298C10.287 0.966859 10.7538 0.5 11.33 0.5C11.9061 0.5 12.3729 0.966859 12.3729 1.54298V1.96316ZM10.287 4.04912H4.15423C3.19468 4.04912 2.41592 4.82789 2.41592 5.78743V20.1389C2.41592 21.0994 3.19369 21.8772 4.15423 21.8772H10.287V4.04912ZM18.5057 21.8772C19.4652 21.8772 20.244 21.0984 20.244 20.1389V5.78743C20.244 4.82789 19.4652 4.04912 18.5057 4.04912H12.3729V21.8772H18.5057Z" fill="#5594E5"/>
<path opacity="0.4" d="M10.1936 8.44653H6.7865V12.9095H10.1936V8.44653ZM10.1936 17.3715H6.7865V21.8106H10.1936V17.3715Z" fill="#5594E5"/>
<path opacity="0.6" d="M2.31659 8.43755V5.6215C2.36328 4.73148 3.07548 4.02126 3.9655 3.97656H6.77957V8.43954H2.31659V8.43755ZM6.77957 12.9005H2.31659V17.3625H6.77957V12.9005Z" fill="#5594E5"/>
</g>
<defs>
<clipPath id="clip0_2_428">
<rect width="22" height="24.9263" fill="white" transform="translate(0.329956 0.5)"/>
</clipPath>
</defs>
</svg>
