<svg width="22" height="26" viewBox="0 0 22 26" fill="none" xmlns="http://www.w3.org/2000/svg">
<g clip-path="url(#clip0_2_572)">
<path d="M7.22439 12.1499C7.77244 12.1499 8.21716 12.5946 8.21716 13.1427V13.8518C8.21716 14.3998 7.77244 14.8445 7.22439 14.8445C6.67635 14.8445 6.23163 14.3998 6.23163 13.8518V13.1427C6.23163 12.5946 6.67635 12.1499 7.22439 12.1499ZM15.3083 13.1427C15.3083 12.5946 14.8636 12.1499 14.3156 12.1499C13.7675 12.1499 13.3228 12.5946 13.3228 13.1427V13.8518C13.3228 14.3998 13.7675 14.8445 14.3156 14.8445C14.8636 14.8445 15.3083 14.3998 15.3083 13.8518V13.1427ZM7.23148 17.1208C7.61643 16.7359 8.23944 16.7338 8.62844 17.1147L8.64364 17.1289L8.73886 17.2069C9.97475 18.149 11.6959 18.1166 12.8953 17.1279L12.9105 17.1147C13.2995 16.7288 13.9286 16.7318 14.3146 17.1208C14.7005 17.5098 14.6975 18.1389 14.3085 18.5249L14.3054 18.5279L14.3024 18.5299L14.2953 18.537L14.2761 18.5553C14.195 18.6312 14.1099 18.7032 14.0228 18.771C12.0302 20.3048 9.23626 20.2379 7.31962 18.6089C7.30037 18.5917 7.28112 18.5735 7.26289 18.5553L7.24263 18.537L7.23655 18.5299L7.23351 18.5279L7.2325 18.5259C7.0461 18.3395 6.93973 18.0872 6.93973 17.8239C6.93973 17.5595 7.04509 17.3072 7.23148 17.1208Z" fill="#A09EF3"/>
<path d="M21.66 15.7734C21.66 17.222 21.0269 18.2522 20.3795 18.8175C20.1465 19.0201 19.9946 19.1062 19.8538 19.164C19.8041 19.1832 19.7545 19.2014 19.7039 19.2187C19.6542 19.2359 19.6046 19.2531 19.5549 19.2724C19.5195 19.3656 19.4638 19.5054 19.3847 19.6776C18.7141 21.1698 16.4166 25.2522 11.2735 25.313C11.1995 25.3221 11.1245 25.3221 11.0506 25.313C5.90443 25.2543 3.60588 21.1698 2.93526 19.6786C2.87448 19.5449 2.81775 19.4101 2.76507 19.2734C2.71644 19.2541 2.66681 19.2359 2.61615 19.2187C2.5655 19.2014 2.51586 19.1832 2.46623 19.164C2.27173 19.0809 2.09343 18.9634 1.94047 18.8185C1.29416 18.2512 0.660004 17.221 0.660004 15.7734V11C0.660004 1.45427 8.83815 0.5 11.16 0.5C14.9791 0.5 15.9334 2.40955 15.9334 2.40955C19.7515 2.40955 21.66 7.18191 21.66 11V15.7734ZM19.1234 17.3821C19.252 17.2696 19.3827 17.1339 19.4911 16.9465C19.6431 16.6831 19.7515 16.3194 19.7515 15.7734V14.8191L19.5326 12.6918V11C19.5326 9.39537 19.1224 7.6246 18.3819 6.32793C17.6474 5.04342 16.8056 4.5369 15.9334 4.5369H14.6185L14.0816 3.4631C13.9975 3.37192 13.9023 3.2919 13.7979 3.22504C13.4697 3.00521 12.6968 2.62735 11.16 2.62735C10.1956 2.62735 8.01659 2.84009 6.15161 3.9848C4.44466 5.03025 2.78736 6.97019 2.78736 11V12.6918L2.56854 14.8191V15.7734C2.56854 16.3204 2.67795 16.6841 2.82889 16.9465C2.93728 17.1339 3.06898 17.2706 3.19763 17.3821C3.28374 17.458 3.36579 17.5178 3.43873 17.5634C3.62614 17.6799 3.75479 17.7103 3.75479 17.7103L4.26333 17.8369L4.42947 18.3353C4.42947 18.3353 4.45986 18.4285 4.52571 18.5916C4.93699 19.6148 6.73612 23.3559 11.0658 23.4095H11.2573C15.5849 23.3538 17.383 19.6148 17.7953 18.5916C17.8601 18.4295 17.8905 18.3353 17.8905 18.3353L18.0567 17.8369L18.5652 17.7103C18.5652 17.7103 18.6939 17.6799 18.8813 17.5634C18.9542 17.5168 19.0363 17.458 19.1234 17.3821Z" fill="#A09EF3"/>
<path opacity="0.4" d="M20.3461 18.7163C20.03 18.9928 19.8609 19.0516 19.6704 19.1174C19.7211 19.1002 19.7707 19.082 19.8203 19.0627C19.9611 19.006 20.1141 18.9199 20.3461 18.7163ZM18.7627 14.7179C18.7627 8.76129 15.8999 6.12641 15.8999 6.12641C14.4949 9.40253 11.4842 9.92526 8.7804 10.3943C5.96925 10.8816 3.49038 11.3121 3.49038 14.7179H2.53409L2.7529 12.5905V10.8988C2.7529 6.86896 4.41021 4.92902 6.11614 3.88256C7.98416 2.73886 10.1622 2.52612 11.1276 2.52612C12.6643 2.52612 13.4373 2.90398 13.7655 3.12381C13.8698 3.19067 13.9651 3.2707 14.0491 3.36187L14.586 4.43567H15.9009C16.7721 4.43567 17.615 4.94219 18.3494 6.22772C19.0889 7.52337 19.5002 9.29414 19.5002 10.8998V12.5905L19.719 14.7179V15.6721C19.719 16.2192 19.6106 16.5829 19.4587 16.8452C19.3614 17.0104 19.2368 17.1572 19.091 17.2808C19.015 17.3477 18.9339 17.4085 18.8478 17.4622C18.7506 17.526 18.6452 17.5756 18.5338 17.609C18.5338 17.609 18.783 17.5503 19.091 17.2808C19.3989 17.0114 19.719 16.6112 19.719 15.6721V14.7179H18.7627ZM17.8571 18.2341C17.8571 18.2341 16.2383 23.2455 11.2218 23.3083H11.2167H11.2238C15.5515 23.2526 17.3496 19.5135 17.7619 18.4904C17.8267 18.3283 17.8571 18.2341 17.8571 18.2341Z" fill="#A09EF3"/>
</g>
<defs>
<clipPath id="clip0_2_572">
<rect width="21" height="24.8191" fill="white" transform="translate(0.660004 0.5)"/>
</clipPath>
</defs>
</svg>
