<svg width="27" height="27" viewBox="0 0 27 27" fill="none" xmlns="http://www.w3.org/2000/svg">
<g clip-path="url(#clip0_2_455)">
<path d="M15.2124 1.47361C16.599 0.134848 18.8167 0.18266 20.1666 1.58042L25.6661 7.27523C27.016 8.67299 26.9865 10.8917 25.6 12.2305L23.718 14.0484L22.191 12.4675C22.78 11.0942 22.8004 9.52752 22.249 8.12976L14.9418 15.1857L16.4169 13.7615C15.487 14.6598 15.6061 15.7666 16.7729 17.083L15.5206 18.2966L8.79834 11.3363L10.0537 10.1247C11.309 11.319 12.3975 11.4909 13.3192 10.6384L19.1931 4.96598C17.8156 4.36577 16.2582 4.3322 14.8563 4.87137L13.3304 3.29151L15.2124 1.47361Z" fill="#D63232"/>
<path opacity="0.5" d="M0.660004 13.6232C0.660004 12.8368 1.29785 12.199 2.08422 12.199C5.02928 12.199 8.04556 13.6537 10.3019 15.909C12.5745 18.1827 14.19 21.379 14.19 25.0169C14.19 25.8032 13.5522 26.4411 12.7658 26.4411C11.9794 26.4411 11.3416 25.8032 11.3416 25.0169C11.3416 22.2448 10.1096 19.7453 8.28767 17.9233C6.44942 16.0861 4.12491 15.0474 2.08422 15.0474C1.29785 15.0474 0.660004 14.4096 0.660004 13.6232Z" fill="#D63232"/>
</g>
<defs>
<clipPath id="clip0_2_455">
<rect width="26" height="25.941" fill="white" transform="translate(0.660004 0.5)"/>
</clipPath>
</defs>
</svg>
