<svg width="24" height="24" viewBox="0 0 24 24" fill="none" xmlns="http://www.w3.org/2000/svg">
<g clip-path="url(#clip0_2_505)">
<path opacity="0.4" d="M7.76908 0.501031H15.7815C16.0476 0.501031 16.2528 0.501031 16.4312 0.51753C17.7027 0.641275 18.7432 1.69414 19.1845 2.72431H4.3661C4.80642 1.69414 5.84794 0.641275 7.11942 0.51753C7.29782 0.5 7.50303 0.5 7.76908 0.5V0.501031ZM5.24469 4.08756C3.64838 4.08756 2.33978 5.45288 1.90358 6.73157C1.8943 6.75838 1.88502 6.7852 1.87677 6.81201C2.33978 6.67589 2.8131 6.57895 3.29158 6.52121C4.53109 6.3624 6.09852 6.3624 7.9186 6.3624H15.829C17.6501 6.3624 19.2165 6.3624 20.457 6.52121C20.9386 6.58308 21.414 6.67279 21.8708 6.81201C21.8626 6.7852 21.8543 6.75838 21.845 6.73157C21.4078 5.45288 20.0992 4.08756 18.5039 4.08756H5.24469Z" fill="#D63232"/>
<path d="M22.5256 8.79508C23.6136 9.87269 23.3578 11.5371 22.8453 14.8648L22.3596 18.0223C21.9585 20.6323 21.7574 21.9368 20.7283 22.7184C19.6981 23.5001 18.1791 23.5001 15.1422 23.5001H8.47444C5.43651 23.5001 3.91755 23.5001 2.88737 22.7184C1.85823 21.9368 1.65715 20.6313 1.25498 18.0213L0.77031 14.8648C0.258832 11.5371 0.00206223 9.87269 1.08998 8.79508C2.17791 7.71851 4.11451 7.71851 7.98875 7.71851H15.6269C19.5011 7.71851 21.4377 7.71851 22.5256 8.79508ZM8.79515 18.8318H14.8205C15.533 18.8318 16.1115 18.2533 16.1115 17.5407C16.1115 16.8282 15.533 16.2497 14.8205 16.2497H8.79515C8.08155 16.2497 7.50408 16.8271 7.50408 17.5407C7.50408 18.2543 8.08155 18.8318 8.79515 18.8318Z" fill="#D63232"/>
</g>
<defs>
<clipPath id="clip0_2_505">
<rect width="22.9557" height="23" fill="white" transform="translate(0.329956 0.5)"/>
</clipPath>
</defs>
</svg>
