<svg width="21" height="23" viewBox="0 0 21 23" fill="none" xmlns="http://www.w3.org/2000/svg">
<g clip-path="url(#clip0_2_481)">
<path d="M3.456 19.6989H10.133V13.6949H12.146C13.559 13.6949 14.913 13.1679 15.912 12.2309C16.912 11.2939 17.472 10.0229 17.472 8.69685C17.472 7.37085 16.912 6.09986 15.912 5.16286C14.913 4.22486 13.56 3.69886 12.146 3.69886H3.456V19.6989ZM13.589 21.4979C13.589 22.2709 12.962 22.8979 12.189 22.8979H1.4C0.627 22.8979 0 22.2709 0 21.4979V1.90086C0 1.12786 0.627 0.500856 1.4 0.500856H12.147C14.358 0.470856 16.499 1.23086 18.137 2.62486C19.775 4.01886 20.787 5.94486 20.97 8.01286C21.153 10.0819 20.493 12.1379 19.122 13.7669C17.752 15.3949 15.774 16.4749 13.587 16.7879L13.59 21.4979H13.589Z" fill="#5594E5"/>
</g>
<defs>
<clipPath id="clip0_2_481">
<rect width="21" height="22.398" fill="white" transform="translate(0 0.5)"/>
</clipPath>
</defs>
</svg>
