<svg width="21" height="20" viewBox="0 0 21 20" fill="none" xmlns="http://www.w3.org/2000/svg">
<g clip-path="url(#clip0_2_442)">
<path d="M0 4.26393C0 3.266 0.39615 2.30838 1.10176 1.60277C1.80737 0.89615 2.76499 0.5 3.76292 0.5H12.2303C13.2282 0.5 14.1858 0.89615 14.8924 1.60176C15.598 2.30838 15.9942 3.266 15.9942 4.26393V7.08638H13.6425C13.0205 5.59754 11.8361 4.41312 10.3473 3.79117V17.4347V15.2221C10.3473 16.6172 11.2888 17.355 13.1687 17.4347L13.1707 19.3166H2.82245V17.4347C4.67518 17.356 5.61566 16.6404 5.64489 15.2876V3.79117C4.15605 4.41312 2.97264 5.59653 2.34969 7.08537H0V4.26393Z" fill="#00B980"/>
<path opacity="0.5" d="M17.2089 5.8093C18.4628 6.62076 19.0908 7.71848 19.0908 9.10249H21V6.28005C21.001 4.21865 19.3428 2.54131 17.2824 2.51611H17.2078V5.8093H17.2089ZM12.1728 16.3612C12.4692 16.4872 12.7837 16.5668 13.1042 16.5981C13.5387 16.6364 13.9741 16.6646 14.4096 16.6838V19.4508H18.1544V17.5688C17.1806 17.5023 16.4982 17.3148 16.1061 17.0043C15.3521 16.4086 15.346 15.7262 15.346 14.8643V8.15092H13.4731V7.10359C13.4731 6.69736 13.2776 6.09054 13.1042 5.8093C12.7212 5.18635 12.2202 4.77205 11.6003 4.56642V15.0941C11.5499 15.7665 11.7404 16.1878 12.1728 16.3612Z" fill="#00B980"/>
</g>
<defs>
<clipPath id="clip0_2_442">
<rect width="21" height="18.9507" fill="white" transform="translate(0 0.5)"/>
</clipPath>
</defs>
</svg>
