<svg width="230" height="51" viewBox="0 0 230 51" fill="none" xmlns="http://www.w3.org/2000/svg">
<g clip-path="url(#clip0_2_781)">
<path d="M13.362 11.1119L17.226 21.7369C17.408 22.2349 17.882 22.5669 18.413 22.5669C18.943 22.5669 19.417 22.2349 19.599 21.7369L23.463 11.1119H34.827V38.8889H23.463V30.5489L23.372 30.6729C22.158 32.2129 20.297 33.1019 18.336 33.0779C16.375 33.0539 14.537 32.1209 13.361 30.5509L13.362 38.8889H2V11.1119H13.362ZM58.185 11.1109L67.655 38.8889H57.552L55.994 34.2159H47.747L46.19 38.8889H36.089L45.559 11.1109H58.185ZM50.905 22.6249L49.097 28.0519H52.715L50.905 22.6249ZM68.94 39.0279V11.2499H84.092C90.947 11.2499 96.526 16.7129 96.713 23.5229L96.718 23.8759V26.4009L96.713 26.7549C96.529 33.4469 91.138 38.8389 84.445 39.0229L84.092 39.0279H68.94ZM79.65 19.3179V30.6819H82.175L82.451 30.6689C85.269 30.5359 87.562 28.3519 87.831 25.5429L87.851 25.2649L87.857 24.9999V24.3689L87.851 24.1009C87.715 21.1789 85.372 19.4579 82.451 19.3179H79.65ZM135.835 11.1109L139.698 21.7369C139.88 22.2349 140.354 22.5669 140.885 22.5669C141.416 22.5669 141.89 22.2349 142.072 21.7369L145.936 11.1109H157.299V38.8889H145.936V30.5479L145.844 30.6719C144.63 32.2119 142.769 33.1009 140.808 33.0769C138.847 33.0529 137.009 32.1199 135.833 30.5499L135.835 38.8889H124.471V11.1099H135.835V11.1109ZM159.826 11.1109H171.189V38.8889H159.826V11.1109ZM183.185 11.1109L190.249 20.8909C190.397 21.0959 190.653 21.1919 190.899 21.1369C191.146 21.0809 191.336 20.8839 191.382 20.6359L191.393 20.5219V11.1109H202.756V38.8889H193.286L186.232 28.5789C186.114 28.4069 185.919 28.3039 185.711 28.3039C185.406 28.3039 185.145 28.5219 185.09 28.8219L185.08 28.9349V38.8889H173.716V11.1099H183.185V11.1109ZM185.08 38.8889H193.286L193.287 38.8899L185.08 38.8889ZM205.281 11.1099H228.64V18.6859H216.014V21.2109H226.746V28.7869H216.014V31.3119H228.64V38.8879H205.281V11.1099ZM98.941 39.0279V11.2499H122.299V18.8259H109.673V21.3509H120.405V28.9269H109.673V31.4519H122.299V39.0279H98.941Z" fill="#F8FAFF" fill-opacity="0.6"/>
</g>
<defs>
<clipPath id="clip0_2_781">
<rect width="230" height="50" fill="white" transform="translate(0 0.109863)"/>
</clipPath>
</defs>
</svg>
