<svg width="24" height="23" viewBox="0 0 24 23" fill="none" xmlns="http://www.w3.org/2000/svg">
<g clip-path="url(#clip0_2_468)">
<path d="M13.3295 1.34553C14.5337 0.182941 16.4585 0.225559 17.631 1.4387L22.4043 6.38144C23.5758 7.59457 23.55 9.52033 22.3468 10.6829L20.7124 12.2598L19.3873 10.8881C19.8987 9.68783 19.9165 8.33494 19.4368 7.12181L13.0946 13.247L14.3762 12.011C13.5684 12.791 13.6725 13.7524 14.6854 14.8942L13.5971 15.9478L7.76337 9.90588L8.85261 8.85429C9.94285 9.89101 10.8864 10.0407 11.6862 9.3003L16.7856 4.37639C15.5903 3.85506 14.2374 3.82532 13.0203 4.29512L11.6962 2.9234L13.3295 1.34553Z" fill="#FFAA59"/>
<path opacity="0.5" d="M3.71067 13.2489C4.50753 12.4798 5.4937 12.5987 5.93376 13.0546L13.7537 21.1521L13.7656 21.164C15.5051 22.9203 18.3337 22.949 20.1078 21.2284C21.8829 19.5088 21.9424 16.6811 20.2416 14.8872C19.8987 14.5255 19.3873 14.3748 18.9026 14.4937C18.418 14.6137 18.0354 14.9833 17.8986 15.464C17.7628 15.9437 17.8956 16.4601 18.2455 16.8149C18.9106 17.5048 18.8917 18.6029 18.2029 19.268C17.5131 19.933 16.4149 19.9142 15.7499 19.2244L15.74 19.2145L7.92989 11.1269C6.22813 9.36466 3.46685 9.62731 1.78293 11.2528C0.0990089 12.8792 -0.258787 15.6296 1.44198 17.3928C1.97422 17.9448 2.85334 17.9607 3.40441 17.4275C3.95647 16.8952 3.97133 16.0171 3.4391 15.465C2.99805 15.0091 2.9138 14.018 3.71067 13.2489Z" fill="#FFAA59"/>
</g>
<defs>
<clipPath id="clip0_2_468">
<rect width="22.9366" height="22" fill="white" transform="translate(0.329956 0.5)"/>
</clipPath>
</defs>
</svg>
