<svg width="20" height="21" viewBox="0 0 20 21" fill="none" xmlns="http://www.w3.org/2000/svg">
<mask id="mask0_2_340" style="mask-type:alpha" maskUnits="userSpaceOnUse" x="0" y="0" width="20" height="21">
<g clip-path="url(#clip0_2_340)">
<path d="M15.8991 13.5251C14.5631 16.2181 11.6271 17.5901 8.81213 17.0601C8.73813 17.0741 8.64913 17.0921 8.54813 17.1121C7.69113 17.2811 5.97813 17.6201 5.20613 17.6971C4.93513 17.7241 4.77113 17.4091 4.94713 17.2011L6.34113 16.0411C3.66313 14.2301 2.66913 10.6731 4.14513 7.69709C5.75513 4.45109 9.69013 3.12509 12.9361 4.73409C16.1821 6.34409 17.5081 10.2791 15.8991 13.5251ZM7.95913 11.8931C7.76213 11.6421 7.39913 11.5971 7.14813 11.7941C6.89713 11.9901 6.85213 12.3531 7.04813 12.6041C7.63013 13.3491 8.79513 13.7591 9.99913 13.7591C11.2041 13.7591 12.3691 13.3491 12.9501 12.6041C13.1471 12.3531 13.1021 11.9901 12.8511 11.7941C12.5991 11.5971 12.2371 11.6421 12.0401 11.8931C11.7631 12.2481 11.0161 12.6041 9.99913 12.6041C8.98313 12.6041 8.23613 12.2481 7.95913 11.8931Z" fill="black"/>
</g>
</mask>
<g mask="url(#mask0_2_340)">
<rect y="0.5" width="20" height="20" fill="#F8FAFF" fill-opacity="0.6"/>
</g>
<defs>
<clipPath id="clip0_2_340">
<rect width="20" height="20" fill="white" transform="translate(0 0.5)"/>
</clipPath>
</defs>
</svg>
