<svg width="180" height="51" viewBox="0 0 180 51" fill="none" xmlns="http://www.w3.org/2000/svg">
<g clip-path="url(#clip0_2_754)">
<path d="M143.592 8.86986C149.347 14.2369 155.101 19.6059 160.858 24.9739V9.56186H167.556V41.9439C161.715 36.4889 155.875 30.9479 149.948 25.4939V40.8189H143.334V8.60986L143.592 8.86986ZM22.393 9.12986C27.117 8.69586 32.271 9.47586 35.965 12.7649C34.419 14.2369 32.788 15.6229 31.241 17.0949C29.524 15.5359 27.204 14.7569 24.884 14.7569C23.166 14.6699 21.362 15.2769 20.418 16.7489C19.731 17.7879 19.989 19.3459 20.933 20.1249C22.479 21.4239 24.454 22.0299 26.344 22.7219C29.092 23.5889 31.842 24.5409 34.074 26.4449C37.167 28.9569 37.854 34.0649 35.45 37.2679C33.388 40.0389 30.038 41.5109 26.688 41.7689C23.681 41.8559 20.675 41.7689 17.84 40.7319C15.694 40.0389 13.804 38.8269 12 37.5269C13.546 36.0569 15.178 34.5839 16.724 33.1119C19.387 35.1899 22.823 36.3149 26.174 35.8819C27.633 35.6229 29.18 34.8439 29.695 33.3719C30.038 32.0739 29.265 30.7739 28.149 30.1679C24.714 28.1759 20.675 27.7449 17.326 25.5799C15.522 24.4539 13.976 22.7219 13.374 20.6449C12.687 18.2209 12.944 15.6229 14.319 13.6309C16.123 10.9469 19.301 9.47586 22.393 9.12986ZM55.033 22.0279H68.604V9.64786H75.39V40.9879H68.604V27.1379H55.033V40.9879H48.333V9.64886H55.033V22.0289V22.0279ZM111.382 14.6679H95.148V22.1149H111.125V27.0499H95.148V35.6229H111.382V40.9889H88.534V9.64586H111.382V14.6679ZM130.021 40.9879H123.32V9.64886H130.021V40.9889V40.9879Z" fill="#F8FAFF" fill-opacity="0.6"/>
</g>
<defs>
<clipPath id="clip0_2_754">
<rect width="180" height="50" fill="white" transform="translate(0 0.109863)"/>
</clipPath>
</defs>
</svg>
