<svg width="24" height="24" viewBox="0 0 24 24" fill="none" xmlns="http://www.w3.org/2000/svg">
<g clip-path="url(#clip0_2_492)">
<path opacity="0.4" d="M10.3415 23.0894C9.81481 23.0894 9.38766 22.6623 9.38766 22.1355V10.6951C9.38766 10.1684 9.81481 9.74121 10.3415 9.74121H21.782C22.3087 9.74121 22.7359 10.1684 22.7359 10.6951V22.1355C22.7359 22.6623 22.3087 23.0894 21.782 23.0894H10.3415Z" fill="#A09EF3"/>
<path d="M11.4412 11.2803H21.5037V21.3428H11.4412V11.2803ZM10.7225 9.12408C9.92879 9.12408 9.285 9.76788 9.285 10.5616V14.1112C8.5642 14.2005 7.83312 14.1533 7.12875 13.9736C4.14696 13.2035 2.3008 10.2197 2.94357 7.20708C3.58634 4.19449 6.48906 2.22306 9.52629 2.73748C12.5635 3.25087 14.6561 6.06734 14.2721 9.12306H10.7225V9.12408ZM16.4407 9.12408C16.8288 4.87011 13.7659 1.07716 9.52629 0.559664C5.28567 0.0411374 1.40031 2.98596 0.75241 7.2081C0.104508 11.4302 2.92817 15.4039 7.12875 16.1812C7.84031 16.3116 8.56522 16.3444 9.285 16.2787V22.0616C9.285 22.8553 9.92879 23.4991 10.7225 23.4991H22.2225C23.0162 23.4991 23.66 22.8553 23.66 22.0616V10.5616C23.66 9.76788 23.0162 9.12408 22.2225 9.12408H16.4407Z" fill="#A09EF3"/>
</g>
<defs>
<clipPath id="clip0_2_492">
<rect width="23" height="22.999" fill="white" transform="translate(0.660004 0.5)"/>
</clipPath>
</defs>
</svg>
