<svg width="28" height="29" viewBox="0 0 28 29" fill="none" xmlns="http://www.w3.org/2000/svg">
<path d="M2 7.65C2 5.91 3.41 4.5 5.15 4.5H22.81C24.55 4.5 25.96 5.91 25.96 7.65V13.6H19.498C17.462 13.599 15.586 14.705 14.599 16.486L9.741 11.628C9.331 11.219 8.667 11.219 8.257 11.628L4.1 15.784V20.95C4.1 21.53 4.57 22 5.15 22H13.562V24.1H5.15C3.41 24.1 2 22.69 2 20.95V7.65ZM16 8.7C15.227 8.7 14.6 9.327 14.6 10.1C14.6 10.873 15.227 11.5 16 11.5C16.773 11.5 17.4 10.873 17.4 10.1C17.4 9.327 16.773 8.7 16 8.7Z" fill="#F8FAFF" fill-opacity="0.94"/>
<path opacity="0.6" d="M22.3 17.05C22.3 16.47 21.83 16 21.25 16C20.67 16 20.2 16.47 20.2 17.05V20.2H17.05C16.47 20.2 16 20.67 16 21.25C16 21.83 16.47 22.3 17.05 22.3H20.2V25.45C20.2 26.03 20.67 26.5 21.25 26.5C21.83 26.5 22.3 26.03 22.3 25.45V22.3H25.45C26.03 22.3 26.5 21.83 26.5 21.25C26.5 20.67 26.03 20.2 25.45 20.2H22.3V17.05Z" fill="#F8FAFF" fill-opacity="0.94"/>
</svg>
