<svg width="166" height="51" viewBox="0 0 166 51" fill="none" xmlns="http://www.w3.org/2000/svg">
<g clip-path="url(#clip0_2_763)">
<path d="M47.065 17.7139L47.14 43.4059L54.175 43.3859L54.1 17.6939L47.065 17.7139ZM57.027 22.4839L57.015 17.7909L61.25 17.7779L61.244 15.7749C61.239 13.5029 61.946 11.6419 63.372 10.1869C64.796 8.73486 66.954 8.00386 69.846 7.99686C70.266 7.99486 70.686 8.00486 71.108 8.02486L71.738 8.06486C72.37 8.11186 72.984 8.15186 73.584 8.18286L73.599 13.4179C72.738 13.3209 71.872 13.2739 71.006 13.2779C70.042 13.2809 69.353 13.5049 68.94 13.9499C68.525 14.3969 68.32 15.1459 68.324 16.1999L68.327 17.7579L73.212 17.7439L73.226 22.4359L68.342 22.4499L68.402 43.2669L61.324 43.2869L61.264 22.4699L57.027 22.4829V22.4839ZM92.573 17.6889L92.585 22.3809L87.403 22.3959L87.437 34.7659C87.441 35.9529 87.645 36.7409 88.043 37.1359C88.443 37.5299 89.241 37.7259 90.438 37.7219C90.836 37.7199 91.218 37.7039 91.583 37.6689C91.934 37.6369 92.283 37.5859 92.629 37.5169L92.645 42.9519C92.049 43.0519 91.383 43.1199 90.652 43.1539C89.939 43.1879 89.224 43.2069 88.51 43.2099C87.467 43.2159 86.425 43.1449 85.393 42.9969C84.413 42.8519 83.548 42.5669 82.798 42.1389C82.047 41.7109 81.433 41.0799 81.025 40.3179C80.591 39.5279 80.371 38.4919 80.367 37.2079L80.325 22.4159L76.039 22.4279L76.025 17.7359L80.311 17.7229L80.296 12.1119L87.366 9.77486L87.388 17.7029L92.573 17.6889ZM27.505 29.4789L36.681 29.4519L36.699 36.0679C35.613 36.6989 34.454 37.1969 33.248 37.5489C31.829 37.9359 30.294 38.1329 28.685 38.1389C24.597 38.1489 21.555 37.0159 19.644 34.7649C17.86 32.6409 16.951 29.5209 16.94 25.4899C16.927 21.2409 17.902 18.0599 19.927 15.7599C21.73 13.5979 24.157 12.5429 27.349 12.5339C29.919 12.5269 31.987 13.0609 33.493 14.1149C34.898 15.1299 35.861 16.6019 36.358 18.4909L36.532 19.2369L43.011 19.2189L42.938 18.7739C42.313 14.9499 40.857 12.0959 38.493 10.0689L38.11 9.75386C35.459 7.69186 31.933 6.69386 27.332 6.70886C22.066 6.72386 17.858 8.59886 14.825 12.2809C11.941 15.7149 10.485 20.1669 10.5 25.5109C10.515 30.8209 11.997 35.1989 14.905 38.5189C18.035 42.1189 22.465 43.9329 28.07 43.9169C31.213 43.9089 33.997 43.5099 36.584 42.6959C39.07 41.8669 41.169 40.7469 43.004 39.2729L43.147 39.1569L43.104 23.7559L27.489 23.8009L27.505 29.4789ZM54.881 10.9299C54.88 9.78286 54.423 8.68486 53.611 7.87486C52.799 7.06486 51.699 6.61086 50.552 6.61286C49.406 6.61786 48.308 7.07886 47.501 7.89286C46.694 8.70786 46.244 9.80886 46.249 10.9559C46.252 13.3429 48.19 15.2759 50.577 15.2729C51.724 15.2679 52.822 14.8079 53.629 13.9929C54.436 13.1789 54.886 12.0769 54.881 10.9299ZM98.49 6.70586C98.879 6.70586 99.193 7.01886 99.195 7.40486L99.297 42.8519C99.297 43.0379 99.223 43.2159 99.091 43.3479C98.96 43.4789 98.781 43.5529 98.595 43.5519L96.7 43.5569C96.514 43.5579 96.336 43.4859 96.203 43.3549C96.071 43.2249 95.996 43.0469 95.995 42.8609L95.893 7.41386C95.893 7.22786 95.966 7.04886 96.097 6.91786C96.229 6.78586 96.407 6.71186 96.593 6.71186L98.49 6.70586ZM114.587 15.9929C117.838 15.9829 120.269 16.6439 121.811 17.9529C123.386 19.2929 124.186 21.0629 124.193 23.2199L124.235 38.0599C124.237 38.4169 124.246 38.7699 124.263 39.1209C124.277 39.4229 124.324 39.6839 124.406 39.9299C124.452 40.0819 124.545 40.2169 124.67 40.3149C124.784 40.4039 125.304 40.5049 126.517 40.2949C126.721 40.2589 126.929 40.3149 127.088 40.4469C127.247 40.5799 127.338 40.7749 127.339 40.9819L127.345 42.5709C127.344 42.8889 127.131 43.1679 126.823 43.2509C125.419 43.6239 123.901 43.5259 122.986 43.1219C122.424 42.8779 121.98 42.5319 121.671 42.0969C121.37 41.6659 121.167 41.1729 121.077 40.6549C121.041 40.4629 121.012 40.2699 120.991 40.0759L120.787 40.3279C120.15 41.0899 119.4 41.7499 118.565 42.2879C117.651 42.8769 116.656 43.3269 115.61 43.6239C114.519 43.9419 113.31 44.1059 112.021 44.1099C109.144 44.1169 106.864 43.4799 105.243 42.2159C103.572 40.9139 102.719 38.9019 102.712 36.2369C102.709 34.6199 103.043 33.2669 103.709 32.2109C104.336 31.2039 105.191 30.3579 106.205 29.7429C107.213 29.1439 108.314 28.7179 109.462 28.4829C110.55 28.2539 111.649 28.0809 112.755 27.9649L115.709 27.7099C117.034 27.6079 118.073 27.4549 118.798 27.2499C119.462 27.0659 119.958 26.8219 120.269 26.5229C120.557 26.2439 120.733 25.8949 120.806 25.4469C120.898 24.8949 120.942 24.1819 120.94 23.3269C120.942 22.7569 120.825 22.1929 120.597 21.6709C120.373 21.1769 120.027 20.7409 119.54 20.3449C119.053 19.9469 118.394 19.6239 117.589 19.3879C116.763 19.1479 115.723 19.0279 114.496 19.0319C112.375 19.0369 110.651 19.5579 109.375 20.5809C108.113 21.5899 107.444 23.1009 107.329 25.1939C107.308 25.5649 107.001 25.8549 106.629 25.8539L104.734 25.8589C104.542 25.8589 104.359 25.7819 104.225 25.6439C104.091 25.5069 104.021 25.3199 104.031 25.1279C104.161 22.1249 105.154 19.8259 106.978 18.2879C108.778 16.7739 111.339 16.0019 114.587 15.9929ZM120.909 29.6929C120.505 29.8869 120.078 30.0299 119.638 30.1189C118.798 30.2949 117.949 30.4279 117.095 30.5189L113.197 30.8969C112.317 30.9929 111.397 31.1339 110.473 31.3149C109.666 31.4709 108.889 31.7559 108.173 32.1599C107.53 32.5319 106.989 33.0589 106.6 33.6919C106.209 34.3219 106.013 35.1739 106.016 36.2279C106.022 37.8999 106.522 39.0879 107.546 39.8639C108.613 40.6709 110.133 41.0769 112.064 41.0709C114.083 41.0659 115.687 40.7039 116.831 39.9949C117.996 39.2729 118.894 38.4409 119.5 37.5179C120.109 36.5879 120.5 35.6859 120.662 34.8379L120.801 34.0599L120.86 33.6799L120.896 33.3959L120.914 33.1929L120.918 33.0569L120.909 29.6929ZM131.776 6.60986C132.165 6.60986 132.48 6.92286 132.482 7.30786L132.518 20.0879C132.653 19.9099 132.793 19.7399 132.94 19.5729C133.651 18.7739 134.481 18.0889 135.401 17.5429C136.332 16.9929 137.337 16.5799 138.386 16.3169C139.457 16.0509 140.555 15.9159 141.658 15.9149C143.656 15.9079 145.418 16.2609 146.893 16.9589C148.338 17.6389 149.612 18.6349 150.619 19.8749C151.612 21.0959 152.357 22.5359 152.838 24.1549C153.309 25.7489 153.55 27.4909 153.556 29.3379C153.565 32.4659 153.13 35.0309 152.265 36.9539C151.394 38.8839 150.324 40.3879 149.086 41.4299C147.848 42.4729 146.528 43.1769 145.16 43.5189C143.82 43.8569 142.702 44.0219 141.74 44.0239C139.952 44.0289 138.397 43.7469 137.123 43.1819C135.866 42.6229 134.817 41.9559 133.997 41.1999C133.476 40.7259 133 40.2029 132.576 39.6399L132.586 42.7559C132.586 42.9419 132.512 43.1199 132.38 43.2519C132.249 43.3829 132.07 43.4569 131.884 43.4559L130.036 43.4609C129.85 43.4619 129.672 43.3899 129.539 43.2589C129.407 43.1289 129.332 42.9509 129.331 42.7649L129.229 7.31686C129.229 6.92886 129.543 6.61486 129.931 6.61486L131.776 6.60986ZM141.669 18.9529C140.11 18.9559 138.746 19.2229 137.61 19.7449C136.482 20.2629 135.544 20.9849 134.82 21.8869C134.082 22.8069 133.522 23.9129 133.155 25.1759C132.778 26.4599 132.591 27.8819 132.594 29.3979C132.598 30.8809 132.78 32.3589 133.138 33.7979C133.487 35.1979 134.037 36.4479 134.773 37.5149C135.499 38.5629 136.458 39.4289 137.574 40.0439C138.694 40.6749 140.094 40.9899 141.732 40.9859C143.293 40.9809 144.613 40.6459 145.66 39.9879C146.725 39.3229 147.623 38.4199 148.281 37.3499C148.966 36.2449 149.472 34.9789 149.783 33.5929C150.097 32.1729 150.255 30.7469 150.252 29.3469C150.252 28.0189 150.064 26.6979 149.693 25.4229C149.352 24.2259 148.793 23.1009 148.044 22.1059C147.326 21.1519 146.41 20.3649 145.36 19.7979C144.318 19.2309 143.076 18.9489 141.669 18.9529Z" fill="#F8FAFF" fill-opacity="0.6"/>
</g>
<defs>
<clipPath id="clip0_2_763">
<rect width="165" height="50" fill="white" transform="translate(0.5 0.109863)"/>
</clipPath>
</defs>
</svg>
