<svg width="25" height="25" viewBox="0 0 25 25" fill="none" xmlns="http://www.w3.org/2000/svg">
<g clip-path="url(#clip0_2_546)">
<path d="M0.329956 3.27938C0.329956 2.54218 0.622576 1.83579 1.14313 1.3142C1.66472 0.79262 2.37111 0.5 3.10831 0.5H8.79952C10.3335 0.501027 11.5768 1.74441 11.5768 3.27835V8.96956C11.5768 10.5035 10.3335 11.7469 8.79952 11.7479H3.10831C1.57436 11.7479 0.329956 10.5035 0.329956 8.96956V3.27938ZM3.27977 2.27626C2.6319 2.27626 2.10621 2.80195 2.10621 3.44982V8.7981C2.10621 9.44597 2.6319 9.97166 3.27977 9.97166H8.62908C9.27592 9.97166 9.80161 9.44597 9.80161 8.7981V3.44982C9.80161 2.80195 9.27592 2.27626 8.62805 2.27626H3.27977ZM4.14737 5.38317C4.14737 4.79484 4.6248 4.31741 5.21312 4.31741H6.6947C7.28303 4.31741 7.76046 4.79484 7.76046 5.38317V6.86475C7.76046 7.45307 7.28303 7.9305 6.6947 7.9305H5.21312C4.6248 7.9305 4.14737 7.45307 4.14737 6.86475V5.38317ZM0.329956 16.0315C0.329956 15.2943 0.622576 14.5879 1.14313 14.0663C1.66472 13.5447 2.37111 13.2521 3.10831 13.2521H8.79952C10.3335 13.2531 11.5768 14.4965 11.5768 16.0304V21.7216C11.5768 23.2556 10.3335 24.499 8.79952 24.5H3.10831C1.57436 24.5 0.329956 23.2556 0.329956 21.7216V16.0315ZM3.27977 15.0283C2.6319 15.0283 2.10621 15.554 2.10621 16.2019V21.5502C2.10621 22.1981 2.6319 22.7237 3.27977 22.7237H8.62908C9.27592 22.7237 9.80161 22.1981 9.80161 21.5502V16.2019C9.80161 15.554 9.27592 15.0283 8.62805 15.0283H3.27977ZM4.14737 18.1353C4.14737 17.5469 4.6248 17.0695 5.21312 17.0695H6.6947C7.28303 17.0695 7.76046 17.5469 7.76046 18.1353V19.6168C7.76046 20.2052 7.28303 20.6826 6.6947 20.6826H5.21312C4.6248 20.6826 4.14737 20.2052 4.14737 19.6168V18.1353ZM13.081 3.27938C13.081 1.74543 14.3254 0.501027 15.8594 0.501027H21.5506C23.0845 0.501027 24.3289 1.74543 24.3289 3.27938V8.97059C24.3289 10.5045 23.0845 11.7489 21.5506 11.7489H15.8594C14.3254 11.7489 13.081 10.5045 13.081 8.97059V3.27938ZM16.0308 2.27728C15.383 2.27728 14.8573 2.80297 14.8573 3.45084V8.79912C14.8573 9.44699 15.383 9.97268 16.0308 9.97268H21.3801C22.027 9.97268 22.5527 9.44699 22.5527 8.79912V3.44982C22.5527 2.80195 22.027 2.27626 21.3791 2.27626L16.0308 2.27728ZM16.8984 5.38419C16.8984 4.79587 17.3759 4.31844 17.9642 4.31844H19.4458C20.0341 4.31844 20.5115 4.79587 20.5115 5.38419V6.86578C20.5115 7.4541 20.0341 7.93153 19.4458 7.93153H17.9642C17.3759 7.93153 16.8984 7.4541 16.8984 6.86578V5.38419Z" fill="#F8FAFF" fill-opacity="0.4"/>
<path opacity="0.4" d="M13.6776 15.4668C13.6776 15.9833 14.0954 16.4012 14.6119 16.4012H15.2967C15.8132 16.4012 16.231 15.9833 16.231 15.4668V14.782C16.231 14.2655 15.8132 13.8477 15.2967 13.8477H14.6119C14.0954 13.8477 13.6776 14.2655 13.6776 14.782V15.4668ZM21.3391 15.4668C21.3391 15.9833 21.757 16.4012 22.2734 16.4012H22.9582C23.4747 16.4012 23.8926 15.9833 23.8926 15.4668V14.782C23.8926 14.2655 23.4747 13.8477 22.9582 13.8477H22.2734C21.757 13.8477 21.3391 14.2655 21.3391 14.782V15.4668ZM16.7413 16.9556V19.3274C16.7413 19.8438 17.1592 20.2617 17.6757 20.2617H18.2024C18.7188 20.2617 19.1367 19.8438 19.1367 19.3274V16.9556C19.1367 16.4391 18.7188 16.0213 18.2024 16.0213H17.6767C17.1602 16.0213 16.7413 16.4391 16.7413 16.9556ZM13.6776 22.9969C13.6776 23.5134 14.0954 23.9312 14.6119 23.9312H15.2967C15.8132 23.9312 16.231 23.5134 16.231 22.9969V22.3121C16.231 21.7956 15.8132 21.3778 15.2967 21.3778H14.6119C14.0954 21.3778 13.6776 21.7956 13.6776 22.3121V22.9969ZM22.142 18.8684C21.6984 18.8684 21.3391 19.2278 21.3391 19.6713V21.3778H19.6521C19.2086 21.3778 18.8492 21.7371 18.8492 22.1796V23.1283C18.8492 23.3409 18.9334 23.5462 19.0844 23.6961C19.2343 23.8471 19.4396 23.9312 19.6521 23.9312H22.6954C23.3566 23.9312 23.8926 23.3943 23.8926 22.733V19.6713C23.8926 19.2278 23.5332 18.8684 23.0897 18.8684H22.142Z" fill="#F8FAFF" fill-opacity="0.4"/>
</g>
<defs>
<clipPath id="clip0_2_546">
<rect width="23.999" height="24" fill="white" transform="translate(0.329956 0.5)"/>
</clipPath>
</defs>
</svg>
