<svg width="26" height="26" viewBox="0 0 26 26" fill="none" xmlns="http://www.w3.org/2000/svg">
<g clip-path="url(#clip0_2_415)">
<path opacity="0.5" d="M4.60429 20.4992C4.93265 20.8732 5.28581 21.2254 5.65981 21.5537V25.499H2.14804C1.32664 25.499 0.660004 24.8324 0.660004 24.011V20.4992H4.60429ZM15.6594 25.499H10.6596V24.1003C12.3054 24.4693 14.0136 24.4693 15.6594 24.1003V25.499ZM25.659 24.011C25.659 24.8324 24.9924 25.499 24.171 25.499H20.6592V21.5537C21.0342 21.2254 21.3864 20.8732 21.7147 20.4992H25.66L25.659 24.011ZM2.05975 10.4996C1.87523 11.32 1.78198 12.1583 1.78198 12.9995C1.78198 13.8586 1.88019 14.6959 2.05975 15.4994H0.660996V10.4996H2.05975ZM25.66 15.4994H24.2612C24.4418 14.6959 24.541 13.8586 24.541 12.9995C24.541 12.1404 24.4418 11.3041 24.2612 10.4996H25.66V15.4994ZM5.6608 4.44429C5.2868 4.77265 4.93364 5.12581 4.60528 5.4998H0.660004V1.98804C0.660004 1.16664 1.32664 0.5 2.14804 0.5H5.65981L5.6608 4.44429ZM24.171 0.5C24.9924 0.5 25.659 1.16664 25.659 1.98804V5.4998H21.7147C21.3864 5.12581 21.0342 4.77265 20.6602 4.44429V0.5H24.171ZM15.6594 1.89875C14.0136 1.52972 12.3054 1.52972 10.6596 1.89875V0.5H15.6594V1.89875Z" fill="#A09EF3"/>
<path d="M13.0325 3.64464C7.93651 3.64464 3.80572 7.77542 3.80572 12.8715C3.80572 17.9675 7.93651 22.0983 13.0325 22.0983C18.1286 22.0983 22.2594 17.9675 22.2594 12.8715C22.2594 7.77542 18.1286 3.64464 13.0325 3.64464ZM1.65402 12.8705C1.65402 6.58698 6.74807 1.49194 13.0325 1.49194C19.318 1.49194 24.412 6.58698 24.412 12.8705C24.412 19.1559 19.318 24.251 13.0335 24.251C6.74707 24.251 1.65204 19.1559 1.65204 12.8715L1.65402 12.8705ZM8.76188 9.20691C8.89679 8.93708 9.2817 8.36072 10.0277 8.36072C10.7737 8.36072 11.1586 8.93708 11.2945 9.20691C11.4612 9.54123 11.5326 9.92712 11.5326 10.2952C11.5326 10.6632 11.4612 11.0491 11.2945 11.3844C11.1596 11.6542 10.7737 12.2306 10.0277 12.2306C9.2817 12.2306 8.89679 11.6542 8.76188 11.3844C8.59918 11.0441 8.51784 10.6721 8.52181 10.2952C8.52181 9.92812 8.59422 9.54123 8.76188 9.20691ZM14.7716 9.20691C14.9065 8.93708 15.2924 8.36072 16.0384 8.36072C16.7844 8.36072 17.1693 8.93708 17.3042 9.20691C17.4709 9.54123 17.5433 9.92712 17.5433 10.2952C17.5433 10.6632 17.4709 11.0491 17.3052 11.3844C17.1693 11.6542 16.7844 12.2306 16.0384 12.2306C15.2924 12.2306 14.9075 11.6542 14.7716 11.3844C14.6099 11.0441 14.5275 10.6721 14.5325 10.2952C14.5325 9.92812 14.6049 9.54123 14.7716 9.20691ZM8.62894 15.7533C8.83132 15.5509 9.10512 15.4378 9.39082 15.4378C9.67553 15.4378 9.94933 15.5509 10.1517 15.7533C10.9156 16.5181 11.9522 16.9467 13.0335 16.9467C14.1148 16.9467 15.1515 16.5181 15.9154 15.7533C16.338 15.3495 17.0066 15.3575 17.4193 15.7711C17.8329 16.1838 17.8409 16.8524 17.4371 17.275C16.2695 18.4437 14.6853 19.0994 13.0335 19.0994C11.3808 19.0994 9.79656 18.4437 8.62894 17.275C8.20932 16.8544 8.20932 16.1739 8.62894 15.7533Z" fill="#A09EF3"/>
</g>
<defs>
<clipPath id="clip0_2_415">
<rect width="25" height="24.999" fill="white" transform="translate(0.660004 0.5)"/>
</clipPath>
</defs>
</svg>
