<svg width="26" height="27" viewBox="0 0 26 27" fill="none" xmlns="http://www.w3.org/2000/svg">
<g clip-path="url(#clip0_2_518)">
<path opacity="0.4" d="M23.5978 14.2065C24.9241 14.2065 26 15.2825 26 16.6087V24.0978C26 25.4241 24.9241 26.5 23.5978 26.5H16.1087C14.7825 26.5 13.7065 25.4241 13.7065 24.0978V16.6087C13.7065 15.2825 14.7825 14.2065 16.1087 14.2065H23.5978ZM9.8913 0.5C11.2175 0.5 12.2935 1.57593 12.2935 2.90217V10.3913C12.2935 11.7175 11.2175 12.7935 9.8913 12.7935H2.40217C1.07593 12.7935 0 11.7175 0 10.3913V2.90217C0 1.57593 1.07593 0.5 2.40217 0.5H9.8913Z" fill="#00B980"/>
<path opacity="0.4" d="M8.28851 15.2158C9.05155 15.2158 9.66925 16.099 9.66925 17.188V23.3368C9.66925 24.4258 9.05155 25.309 8.28851 25.309H3.98478C3.22174 25.309 2.60403 24.4258 2.60403 23.3368V17.188C2.60403 16.099 3.22174 15.2158 3.98478 15.2158H8.28851Z" fill="#00B980"/>
<path d="M6.64131 2.58719C6.69985 2.63059 6.74325 2.69014 6.76646 2.75877L8.95668 8.93377C9.01219 9.0347 9.01219 9.15784 8.95668 9.25877C8.89511 9.35466 8.78813 9.4132 8.67407 9.41421H7.88277C7.73137 9.41219 7.59612 9.3163 7.54364 9.17399L7.17625 8.10008H4.85885L4.47733 9.17399C4.42485 9.3163 4.2896 9.41219 4.1382 9.41421H3.36103C3.24294 9.4132 3.13292 9.35567 3.06429 9.25877C3.01584 9.15582 3.01584 9.03672 3.06429 8.93377L5.33929 2.75877C5.38673 2.61848 5.51592 2.52259 5.66429 2.51855H6.44146C6.51312 2.52057 6.58277 2.5448 6.64131 2.58719ZM5.35342 6.72942H6.76646L6.03168 4.83595L5.35342 6.72942Z" fill="#00B980"/>
<path d="M9.8913 14.1257C11.2175 14.1257 12.2935 15.2017 12.2935 16.5279V24.017C12.2935 25.3433 11.2175 26.4192 9.8913 26.4192H2.40217C1.07593 26.4192 0 25.3433 0 24.017V16.5279C0 15.2017 1.07593 14.1257 2.40217 14.1257H9.8913ZM4.17958 16.9165C3.98478 16.9175 3.82733 17.075 3.82632 17.2698V23.4579C3.82733 23.6527 3.98478 23.8101 4.17958 23.8111H6.41219C6.8684 23.8273 7.32259 23.7405 7.74045 23.5578C8.08362 23.4024 8.36925 23.146 8.56001 22.822C8.73765 22.5121 8.8295 22.1619 8.82748 21.8046C8.83354 21.4554 8.75178 21.1102 8.58828 20.8014C8.44596 20.5611 8.25318 20.3542 8.02306 20.1948C8.18051 20.0726 8.31071 19.9182 8.40458 19.7416C8.52973 19.4812 8.59231 19.1965 8.58828 18.9079C8.5913 18.5617 8.50349 18.2205 8.33393 17.9187C8.15629 17.5998 7.88478 17.3434 7.55675 17.184C7.22267 17.0205 6.85831 16.9296 6.48688 16.9165H4.17958ZM6.21133 21.0274C6.39705 21.0173 6.58276 21.0577 6.74829 21.1405C6.88051 21.2051 6.98851 21.308 7.05916 21.4372C7.11165 21.5523 7.13183 21.6795 7.11568 21.8046C7.12174 21.9732 7.04907 22.1357 6.91786 22.2427C6.68773 22.4041 6.40512 22.4748 6.12655 22.4405H4.99612V21.0274H6.21133ZM6.04177 18.0671C6.27391 18.0429 6.50606 18.1095 6.69177 18.2518C6.81087 18.3649 6.87748 18.5233 6.87546 18.6889C6.88152 18.8231 6.8472 18.9553 6.77554 19.0704C6.69682 19.1753 6.59588 19.2621 6.47981 19.3247C6.33649 19.3823 6.18207 19.4105 6.02764 19.4095H4.99612V18.0671H6.04177ZM21.7215 21.2404H22.4704C22.5643 21.2182 22.6622 21.2394 22.7389 21.2969C22.8075 21.3746 22.8378 21.4776 22.8237 21.5795C22.7641 21.9227 22.644 22.2528 22.4704 22.5545C22.2968 22.8341 22.0768 23.0824 21.8204 23.2893C21.5661 23.4871 21.2794 23.6406 20.9726 23.7415C20.6526 23.8444 20.3196 23.8969 19.9835 23.8969C19.4182 23.904 18.8641 23.7465 18.3867 23.4448C17.9103 23.1521 17.5318 22.7241 17.2987 22.2154C16.7708 21.0375 16.7708 19.6911 17.2987 18.5132C17.5379 18.0055 17.9144 17.5746 18.3867 17.2698C18.8682 16.9781 19.4213 16.8267 19.9845 16.8307C20.3206 16.8307 20.6536 16.8832 20.9736 16.9861C21.2825 17.082 21.5691 17.2354 21.8214 17.4383C22.0808 17.6412 22.3019 17.8905 22.4714 18.1731C22.645 18.4749 22.7651 18.8049 22.8247 19.1481C22.8388 19.25 22.8085 19.353 22.7399 19.4307C22.6763 19.5145 22.5764 19.5619 22.4714 19.5579H21.7225C21.555 19.5599 21.4116 19.4398 21.3834 19.2753C21.347 19.1198 21.2855 18.9715 21.1997 18.8372C21.1189 18.709 21.013 18.599 20.8888 18.5122C20.7627 18.4264 20.6244 18.3598 20.479 18.3144C20.3155 18.2851 20.148 18.2851 19.9845 18.3144C19.6908 18.3083 19.4011 18.3871 19.1508 18.5405C18.8944 18.71 18.6936 18.9503 18.5714 19.2329C18.4009 19.6093 18.3191 20.0201 18.3312 20.434C18.3221 20.8468 18.4049 21.2566 18.5714 21.635C18.6925 21.9177 18.8944 22.1579 19.1508 22.3274C19.4011 22.4809 19.6908 22.5596 19.9845 22.5535C20.152 22.5515 20.3175 22.5283 20.479 22.4829C20.6254 22.4395 20.7637 22.3729 20.8888 22.285C21.013 22.1982 21.1189 22.0882 21.1997 21.96C21.2855 21.8248 21.347 21.6774 21.3834 21.522C21.4106 21.3565 21.555 21.2364 21.7225 21.2394L21.7215 21.2404Z" fill="#00B980"/>
</g>
<defs>
<clipPath id="clip0_2_518">
<rect width="26" height="26" fill="white" transform="translate(0 0.5)"/>
</clipPath>
</defs>
</svg>
