<svg width="28" height="20" viewBox="0 0 28 20" fill="none" xmlns="http://www.w3.org/2000/svg">
<g clip-path="url(#clip0_2_533)">
<path opacity="0.4" d="M19.3005 13.7197C19.0275 13.6437 18.7455 13.6087 18.4615 13.6147L14.9795 5.49072L21.8445 8.38072V8.42172C21.8445 8.95872 21.9895 9.46172 22.2445 9.89472L19.3005 13.7197Z" fill="#F7B50B"/>
<path d="M10.0061 3.43794C9.99506 2.38694 10.5521 1.41194 11.4631 0.887939C12.3741 0.363939 13.4961 0.370939 14.4001 0.907939C15.3031 1.44494 15.8471 2.42794 15.8211 3.47794L22.6911 6.37094C23.6901 5.36794 25.2661 5.22894 26.4241 6.04294C27.5831 6.85694 27.9861 8.38694 27.3811 9.66694C26.7751 10.9459 25.3361 11.6039 23.9721 11.2239L21.0301 15.0499C21.7941 16.3509 21.4361 18.0209 20.2051 18.8939C18.9741 19.7669 17.2801 19.5539 16.3041 18.4029C15.3291 17.2519 15.3951 15.5449 16.4581 14.4739L12.9731 6.34394L12.9131 6.34494C12.4151 6.34594 11.9251 6.21794 11.4901 5.97294L6.35406 10.0819C6.75306 11.4159 6.15006 12.8449 4.91706 13.4899C3.68406 14.1359 2.16606 13.8179 1.29706 12.7309C0.42806 11.6439 0.45006 10.0929 1.35106 9.03194C2.25206 7.97094 3.77906 7.69694 4.99206 8.37894L10.1271 4.27094C10.0471 4.00094 10.0071 3.71994 10.0071 3.43794H10.0061ZM22.2451 9.89394C21.9901 9.46194 21.8451 8.95894 21.8451 8.42194V8.38094L14.9801 5.49094L18.4611 13.6149C18.7451 13.6089 19.0281 13.6439 19.3011 13.7199L22.2451 9.89394Z" fill="#F7B50B"/>
</g>
<defs>
<clipPath id="clip0_2_533">
<rect width="27.001" height="18.93" fill="white" transform="translate(0.660004 0.5)"/>
</clipPath>
</defs>
</svg>
