<svg width="173" height="51" viewBox="0 0 173 51" fill="none" xmlns="http://www.w3.org/2000/svg">
<g clip-path="url(#clip0_2_772)">
<path d="M19.668 13.8326C16.587 6.39962 24.72 -0.213376 32.461 0.122624C35.508 0.252624 38.493 1.15262 40.868 3.11862L36.318 8.13562H36.312C33.361 5.18562 26.23 6.50762 26.275 10.6256C26.311 13.9256 31.254 16.4846 33.825 20.4936C37.181 18.3366 41.253 16.5856 45.221 16.1556C48.667 14.4236 52.933 13.4556 56.67 15.3066C57.782 15.8496 58.736 16.6686 59.44 17.6866C61.117 16.5486 63.022 15.4536 64.65 14.7786C65.744 14.3226 66.803 14.0096 67.731 13.9016C71.303 13.5026 73.109 15.3316 71.793 18.6636C71.394 19.9106 69.565 23.6816 68.813 26.3426C68.478 27.5266 68.359 28.4836 68.672 28.8996C68.957 29.2806 69.874 29.1616 70.796 28.8376C72.706 28.1606 75.106 26.4476 76.23 24.4576C76.299 24.1976 76.372 23.9336 76.452 23.6636C77.853 18.9296 80.199 13.9286 80.205 13.9116L86.118 16.0526C85.076 17.9666 83.345 22.0226 82.553 25.2416C82.097 27.0986 81.402 30.6006 84.301 28.4136C85.514 27.4966 86.585 25.9196 87.058 24.9276C88.961 25.6616 91.218 26.1806 93.608 26.5026C94.722 21.1926 96.022 15.9606 97.631 10.9896C98.844 7.69162 100.992 4.46162 104.165 2.68962C108.038 0.525624 112.054 1.14062 115.597 2.86662L112.344 8.75062V8.74562C110.812 7.99962 108.676 7.33262 106.973 8.28962C105.401 9.16662 104.347 11.1146 103.749 12.7436C102.336 17.1776 101.157 21.9746 100.126 26.9036C102.623 26.8876 105.058 26.6836 107.199 26.3056L107.314 26.2856C107.2 25.7376 107.133 25.1806 107.114 24.6206H107.126C106.944 19.4656 110.094 14.3386 115.226 12.7266C117.72 11.9466 120.426 12.0886 122.756 13.2116C123.798 13.7116 124.698 14.4016 125.364 15.2336C129.004 19.7566 124.442 24.7856 120.09 27.6166C119.022 28.3106 117.915 28.9446 116.775 29.5126C118.33 31.3296 120.05 32.9256 121.861 34.5656C123.707 33.7056 126.247 32.4406 128.936 30.6186C127.016 27.6166 126.783 24.4386 127.535 21.5896C128.053 19.6306 129.033 17.8596 130.24 16.4236C131.505 14.9206 133.054 13.7476 134.644 13.0636C136.654 12.1976 138.744 12.0786 140.556 12.9616C141.478 13.3936 142.225 13.9576 142.806 14.6186C144.207 16.1966 144.588 18.1446 144.304 20.2286C143.968 22.6836 142.777 25.1616 141.239 27.3266C140.904 27.8006 140.527 28.2846 140.12 28.7726H140.145L140.15 28.7896C144.693 28.3296 148.451 24.1796 150.892 20.0246C153.016 12.4846 156.245 4.63862 156.264 4.59462C158.269 5.25562 160.279 5.92262 162.284 6.58362V6.59362C161.971 7.04962 158.314 16.1236 156.537 23.4666C156.338 24.3046 155.347 28.4906 155.688 29.3216C156.127 30.3806 158.331 28.8996 159.037 28.3246L162.905 33.2176C160.069 35.5236 156.121 36.9766 152.84 35.5696C151.915 35.1796 151.104 34.5626 150.482 33.7756C149.901 33.0396 149.54 32.2136 149.334 31.3356C146.427 33.8096 142.88 35.3716 138.498 35.3226C136.932 35.3056 135.422 35.0436 134.072 34.5596L134.051 34.5516C133.88 34.6816 133.711 34.8086 133.544 34.9296C129.215 38.0856 124.716 40.0966 119.942 42.3406C116.872 39.2426 113.158 36.1896 110.492 32.7656C110.345 32.5756 110.196 32.3696 110.043 32.1506L110.013 32.1606C106.786 33.0536 102.792 33.4406 98.851 33.4196C97.817 39.0546 96.928 44.7286 96.064 50.1096L89.565 49.8866C90.417 44.3966 91.295 38.6966 92.335 33.0056L92.15 32.9836C91.086 32.8476 90.028 32.6706 88.978 32.4526C86.471 34.5316 83.498 36.1266 80.365 35.5226C78.573 35.1756 77.257 34.1506 76.467 32.6956C74.343 34.2456 72.022 35.3126 69.976 35.7056C68.466 35.9966 67.014 35.9796 65.744 35.6156C64.184 35.1716 62.941 34.2476 62.184 32.7956C61.141 30.7906 61.313 27.6756 63.124 23.8246C63.437 23.1526 63.71 22.6106 63.961 22.1096C62.498 22.9376 61.214 23.8336 60.748 24.3666C60.406 26.3566 59.508 28.2966 58.258 30.0136C55.468 33.8476 50.768 36.8156 46.115 36.4906C44.167 36.3536 42.407 35.6706 41.092 34.4806C39.19 32.7536 38.517 30.2426 38.921 27.6166C39.137 26.1986 39.656 24.7566 40.322 23.4126C39.012 23.8226 36.947 24.9826 35.349 26.2266C35.145 30.3806 32.532 33.6646 28.976 35.6596C23.342 38.8266 15.163 38.7016 10.754 34.9536L15.146 29.9236C17.247 31.6546 21.349 31.9456 24.453 30.8016C29.107 29.0866 29.482 25.3266 26.941 22.0226C24.72 19.1356 21.029 17.1126 19.668 13.8326ZM53.731 21.3956C52.751 20.4906 50.798 20.8266 49.636 21.6126C48.394 22.4496 47.032 24.1466 46.178 25.8216C45.506 27.1376 44.936 28.6756 45.699 29.4676C46.605 30.4076 48.615 29.9456 49.709 29.3986C50.979 28.7666 52.188 27.7236 53.076 26.4936C54.062 25.1376 55.087 22.6486 53.731 21.3956ZM134.262 26.1926L134.268 26.1986L134.264 26.1896L134.262 26.1926ZM137.27 18.8956C136.296 18.7656 135.037 20.0356 134.581 20.8436C133.671 22.4476 133.516 24.6746 134.264 26.1896C135.609 25.0416 138.516 20.7636 137.719 19.2156C137.633 19.0396 137.464 18.9196 137.27 18.8956ZM120.096 19.5796C118.176 17.0166 113.135 19.3466 113.87 24.0226C115.254 23.4526 119.885 20.7416 120.096 19.5796Z" fill="#F8FAFF" fill-opacity="0.6"/>
</g>
<defs>
<clipPath id="clip0_2_772">
<rect width="172.5" height="50" fill="white" transform="translate(0.5 0.109863)"/>
</clipPath>
</defs>
</svg>
