<svg width="183" height="25" viewBox="0 0 183 25" fill="none" xmlns="http://www.w3.org/2000/svg">
<g clip-path="url(#clip0_2_964)">
<path d="M49.7949 22.4646C47.8496 22.4646 46.1603 22.0385 44.7251 21.1874C43.3219 20.3682 42.1777 19.171 41.4246 17.7318C40.6764 16.2636 40.3014 14.6443 40.3014 12.875C40.3014 11.1388 40.6764 9.54451 41.4256 8.09228C42.1747 6.65606 43.3199 5.46587 44.7261 4.66174C46.1603 3.8116 47.8496 3.38554 49.7949 3.38554C50.624 3.38554 51.5322 3.51056 52.5213 3.7606C53.5095 4.01064 54.4736 4.4207 55.4148 4.98779L55.3908 9.09444C54.8397 8.55936 54.2106 8.11229 53.5255 7.76723C52.3803 7.14113 51.0991 6.80608 49.7949 6.79108C48.4717 6.79108 47.3645 7.03311 46.4714 7.51719C45.6042 7.99027 44.9091 8.72638 44.4861 9.61953C44.04 10.5217 43.8159 11.6058 43.8159 12.875C43.8159 14.1762 44.04 15.2954 44.4861 16.2296C44.9091 17.1227 45.6042 17.8588 46.4714 18.3329C47.3635 18.817 48.4717 19.059 49.7949 19.059C51.0991 19.043 52.3803 18.708 53.5255 18.0829C54.2086 17.7228 54.8367 17.2667 55.3908 16.7307L55.4148 20.8613C54.4746 21.4124 53.5095 21.8215 52.5213 22.0885C51.5322 22.3385 50.624 22.4646 49.7949 22.4646ZM70.3582 19.2841V22.1885H67.0346V21.0373C66.4935 21.4704 65.8885 21.8165 65.2403 22.0635C64.6032 22.3135 63.8541 22.4476 62.993 22.4636C62.1138 22.4856 61.2407 22.3155 60.4346 21.9635C59.6375 21.5964 58.9753 21.0033 58.4493 20.1862C57.9232 19.3511 57.6601 18.2749 57.6601 16.9557V8.91942H60.9847V16.4566C60.9847 17.1737 61.1117 17.7498 61.3667 18.1839C61.6218 18.618 61.9568 18.927 62.3709 19.11C62.786 19.2771 63.248 19.3601 63.7581 19.3601C64.4912 19.3601 65.1453 19.202 65.7184 18.885C66.3085 18.5679 66.7476 18.1339 67.0346 17.5828V8.91942H70.3582V19.2841ZM72.1674 17.7818C72.6935 18.1159 73.2356 18.3999 73.7937 18.634C74.3678 18.867 74.9259 19.051 75.468 19.184C75.987 19.2961 76.5151 19.3551 77.0462 19.3591C77.7793 19.3591 78.3694 19.2931 78.8155 19.159C79.2776 19.009 79.6056 18.834 79.7956 18.634C79.9877 18.4339 80.0827 18.2329 80.0827 18.0329C80.0987 17.7988 79.9717 17.5988 79.7006 17.4318C79.4456 17.2647 79.0065 17.1317 78.3854 17.0317C78.0054 16.9477 77.6223 16.8817 77.2372 16.8317L76.4241 16.6806C76.1511 16.6126 75.88 16.5376 75.611 16.4556C74.5268 16.2056 73.6907 15.7625 73.1006 15.1284C72.5265 14.4943 72.2234 13.7262 72.1914 12.825C72.1754 11.9569 72.3825 11.2148 72.8135 10.5967C73.2436 9.97858 73.8657 9.51151 74.6788 9.19446C75.508 8.8604 76.4961 8.67638 77.6443 8.64337C78.3934 8.62637 79.1425 8.67638 79.8917 8.7934C80.6418 8.91041 81.3579 9.08544 82.044 9.31948V12.875C81.5839 12.618 81.1049 12.4 80.6088 12.2239C80.1117 12.0439 79.5996 11.9099 79.0785 11.8239C78.6135 11.7409 78.1394 11.7159 77.6683 11.7479C76.9502 11.7649 76.4081 11.8319 76.0421 11.9479C75.675 12.0649 75.436 12.1899 75.3239 12.324C75.2349 12.441 75.1779 12.578 75.1569 12.724C75.1569 12.924 75.2449 13.1081 75.42 13.2751C75.611 13.4251 75.946 13.5511 76.4241 13.6512L77.2372 13.8512C77.5083 13.9012 77.7873 13.9512 78.0744 14.0012C78.2344 14.0352 78.3844 14.0682 78.5285 14.1012C78.6885 14.1182 78.8475 14.1432 79.0065 14.1762C79.8997 14.3263 80.6408 14.5863 81.2309 14.9534C81.821 15.3034 82.259 15.7375 82.5461 16.2546C82.8491 16.7557 83.0082 17.3227 83.0242 17.9578C83.0402 18.942 82.7931 19.7681 82.283 20.4362C81.773 21.1043 81.0709 21.6044 80.1787 21.9385C79.2856 22.2725 78.2494 22.4476 77.0702 22.4646C76.2731 22.4646 75.452 22.3725 74.6068 22.1885C73.7737 22.0195 72.9566 21.7765 72.1674 21.4624V17.7818ZM92.9267 12.1739H83.8153V8.91841H92.9267V12.1739ZM93.9789 22.2385C92.9907 22.3885 92.1386 22.4646 91.4205 22.4646C89.9863 22.4646 88.7341 22.0645 87.6659 21.2624C86.6137 20.4612 86.0876 19.059 86.0876 17.0557V5.23883H89.3872V17.0567C89.3872 17.2067 89.3962 17.3327 89.4122 17.4328C89.4122 17.9829 89.4922 18.3839 89.6512 18.635C89.8112 18.868 90.0173 19.027 90.2723 19.11C90.5434 19.177 90.9264 19.21 91.4205 19.21C91.7886 19.206 92.1556 19.181 92.5207 19.135C92.9507 19.085 93.4368 19.01 93.9789 18.91V22.2405V22.2385ZM101.405 19.209C102.218 19.209 102.888 19.067 103.414 18.784C103.927 18.5129 104.34 18.0819 104.586 17.5568C104.841 17.0067 104.969 16.3386 104.969 15.5535C104.969 14.7533 104.841 14.0852 104.586 13.5511C104.349 13.0181 103.934 12.585 103.414 12.324C102.888 12.0399 102.218 11.8979 101.405 11.8979C100.592 11.8979 99.9228 12.0399 99.3968 12.324C98.8867 12.591 98.5036 13.0001 98.2486 13.5511C97.9935 14.0852 97.8665 14.7523 97.8665 15.5535C97.8665 16.3386 97.9935 17.0057 98.2486 17.5568C98.4956 18.0819 98.9067 18.5129 99.4208 18.784C99.9468 19.068 100.608 19.209 101.405 19.209ZM101.405 22.4646C100.034 22.4646 98.8307 22.1555 97.7945 21.5384C96.7763 20.9383 95.9412 20.0732 95.3791 19.034C94.821 17.9829 94.542 16.8227 94.542 15.5535C94.542 14.2683 94.821 13.1081 95.3791 12.0729C95.9412 11.0337 96.7763 10.1676 97.7945 9.56952C98.8307 8.95242 100.034 8.64337 101.405 8.64337C102.776 8.64337 103.98 8.95242 105.017 9.56952C106.049 10.1496 106.889 11.0207 107.431 12.0739C108.005 13.1251 108.292 14.2853 108.292 15.5545C108.292 16.8227 108.005 17.9829 107.431 19.035C106.879 20.0802 106.042 20.9483 105.017 21.5384C103.98 22.1555 102.776 22.4646 101.405 22.4646ZM127.396 22.1885V9.16945L122.064 22.1885H119.41L114.077 9.16945V22.1885H110.562V3.66058H115.703L120.749 15.8795L125.771 3.66058H130.912V22.1885H127.396ZM136.635 16.8557C136.763 17.3898 136.986 17.8318 137.305 18.1829C137.624 18.5169 138.062 18.775 138.62 18.959C139.178 19.126 139.879 19.209 140.724 19.209C141.31 19.207 141.895 19.149 142.47 19.034C143.076 18.917 143.841 18.667 144.765 18.2839V21.7885C143.953 22.0555 143.211 22.2305 142.542 22.3145C141.887 22.4146 141.282 22.4646 140.724 22.4646C139.13 22.4646 137.759 22.1645 136.611 21.5634C135.479 20.9453 134.618 20.1192 134.028 19.084C133.454 18.0329 133.167 16.8477 133.167 15.5285C133.167 14.2273 133.43 13.0581 133.956 12.0239C134.46 10.9957 135.249 10.1356 136.229 9.54451C137.217 8.94442 138.365 8.64337 139.672 8.64337C140.867 8.64337 141.968 8.95242 142.972 9.56952C143.976 10.1876 144.742 11.1138 145.268 12.349C145.794 13.5842 145.953 15.0864 145.746 16.8557H136.635ZM142.422 14.0012C142.343 13.5011 142.183 13.0831 141.944 12.75C141.711 12.421 141.386 12.1679 141.011 12.0239C140.628 11.8569 140.182 11.7739 139.672 11.7739C139.082 11.7739 138.58 11.8569 138.165 12.0239C137.778 12.1819 137.439 12.441 137.185 12.774C136.93 13.0921 136.747 13.5011 136.635 14.0012H142.422ZM153.995 19.209C154.809 19.209 155.478 19.067 156.004 18.784C156.518 18.5129 156.929 18.0819 157.176 17.5568C157.431 17.0067 157.559 16.3386 157.559 15.5535C157.559 14.7533 157.431 14.0852 157.176 13.5511C156.939 13.0181 156.525 12.585 156.004 12.324C155.478 12.0399 154.809 11.8979 153.995 11.8979C153.182 11.8979 152.513 12.0399 151.987 12.324C151.477 12.591 151.094 13.0001 150.839 13.5511C150.584 14.0852 150.456 14.7523 150.456 15.5535C150.456 16.3386 150.584 17.0057 150.839 17.5568C151.086 18.0819 151.497 18.5129 152.011 18.784C152.537 19.068 153.198 19.209 153.995 19.209ZM153.995 22.4646C152.624 22.4646 151.421 22.1555 150.385 21.5384C149.367 20.9383 148.532 20.0732 147.969 19.034C147.411 17.9829 147.132 16.8227 147.132 15.5535C147.132 14.2683 147.411 13.1081 147.969 12.0729C148.532 11.0337 149.367 10.1676 150.385 9.56952C151.421 8.95242 152.624 8.64337 153.995 8.64337C155.367 8.64337 156.57 8.95242 157.606 9.56952C158.638 10.1496 159.478 11.0207 160.021 12.0739C160.595 13.1251 160.882 14.2853 160.882 15.5545C160.882 16.8227 160.595 17.9829 160.021 19.035C159.468 20.0802 158.631 20.9483 157.606 21.5384C156.57 22.1555 155.367 22.4646 153.995 22.4646ZM165.041 8.91942C165.184 9.4365 165.288 9.81956 165.352 10.0706C165.431 10.3206 165.543 10.6967 165.686 11.1978L167.552 17.9829L170.23 8.91841H174.368L177.021 17.9829L178.91 11.1968C179.054 10.6797 179.157 10.2966 179.221 10.0456C179.301 9.79555 179.412 9.41949 179.556 8.91841H183C182.895 9.30348 182.783 9.68754 182.665 10.0706C182.601 10.3206 182.498 10.6967 182.354 11.1978L179.269 22.1895H174.846L172.31 13.4501L169.752 22.1885H165.328L162.244 11.1968C162.139 10.8107 162.027 10.4267 161.909 10.0456C161.845 9.79555 161.741 9.41949 161.598 8.91841H165.041V8.91942ZM21.2514 0.0010007C23.8398 -0.0700106 25.054 6.9451 25.412 11.2028C26.3422 12.459 26.8673 13.8812 26.8673 15.3864C26.8673 20.4852 20.8533 24.6199 13.4331 24.6199C6.01395 24.6199 0 20.4852 0 15.3864C0 13.8422 0.552087 12.387 1.52724 11.1078C1.8953 6.84109 3.10949 -0.0700106 5.6789 0.0010007C7.75023 0.0570096 10.1676 3.20151 11.8289 5.96995C11.8699 6.05196 11.9099 6.13197 11.9469 6.20998C12.9571 6.13297 13.9722 6.13497 14.9824 6.21499C15.0204 6.13497 15.0594 6.05396 15.1024 5.96995C16.7627 3.20251 19.18 0.0580097 21.2514 0.0010007Z" fill="white"/>
</g>
<defs>
<clipPath id="clip0_2_964">
<rect width="183" height="24.6199" fill="white"/>
</clipPath>
</defs>
</svg>
