<svg width="23" height="24" viewBox="0 0 23 24" fill="none" xmlns="http://www.w3.org/2000/svg">
<g clip-path="url(#clip0_2_586)">
<path opacity="0.4" d="M14.8005 0.5H5.40805C4.25304 0.5 3.31708 1.43596 3.31708 2.59097V8.17088H17.4112C18.1809 8.17088 18.8052 8.79518 18.8052 9.56486V17.9845C18.8052 18.7542 18.1809 19.3785 17.4112 19.3785H3.31708V21.7711C3.31708 22.9262 4.25304 23.8621 5.40805 23.8621H20.239C21.394 23.8621 22.33 22.9262 22.33 21.7711V7.97074C22.33 7.41215 22.1069 6.87647 21.7097 6.48416L16.2711 1.10439C15.8798 0.717063 15.3511 0.5 14.8005 0.5Z" fill="#1A7AF9"/>
<path d="M4.35256 11.353H3.81488V13.5466H4.39438C5.09933 13.5466 5.4309 13.1742 5.4309 12.3945C5.4309 11.6517 5.14115 11.354 4.35256 11.354V11.353ZM13.6405 11.3909H13.3915V16.0358H13.6405C14.7188 16.0358 15.2575 15.2552 15.2575 13.6949C15.2575 12.1347 14.7188 11.3909 13.6405 11.3909Z" fill="#1A7AF9"/>
<path d="M17.5755 8.19678C18.3452 8.19678 18.9695 8.82108 18.9695 9.59076V18.0104C18.9695 18.7801 18.3452 19.4044 17.5755 19.4044H1.72394C0.95426 19.4044 0.329956 18.7801 0.329956 18.0104V9.59076C0.329956 8.82108 0.95426 8.19678 1.72394 8.19678H17.5755ZM2.64297 10.5914V16.706C2.64297 17.0605 2.93073 17.3483 3.28519 17.3483C3.63966 17.3483 3.92742 17.0605 3.92742 16.706V14.8222H4.59056C6.00047 14.8222 6.82989 13.931 6.82989 12.4076C6.82989 10.921 6.04229 10.1404 4.54973 10.1404H3.09302C2.8441 10.1404 2.64297 10.3425 2.64297 10.5914ZM9.52525 12.9274L9.48343 12.8905C9.0274 12.6675 8.69583 12.4813 8.69583 12.0362C8.69583 11.627 8.94476 11.3671 9.40079 11.3671C9.63876 11.3651 9.87175 11.4328 10.0719 11.5612C10.3806 11.7524 10.7838 11.7265 10.983 11.4238C11.1462 11.1749 11.1124 10.8453 10.9013 10.6343C10.7888 10.5237 10.6683 10.4192 10.52 10.3326C10.1794 10.1344 9.79708 10.0289 9.40079 10.0289C8.2398 10.0289 7.41038 10.921 7.41038 12.1467C7.41038 13.2619 8.03269 13.8185 8.57236 14.1162L9.35897 14.5623L9.40776 14.5902C9.83591 14.8331 10.1057 14.9865 10.1057 15.4166C10.1057 15.9005 9.815 16.1594 9.31715 16.1594C9.03039 16.1594 8.7267 16.0419 8.4479 15.8428C8.13127 15.6167 7.71507 15.6317 7.498 15.9543L7.48307 15.9772C7.29886 16.255 7.34068 16.6244 7.58164 16.8544C8.0317 17.3054 8.63908 17.5623 9.27632 17.5713C10.52 17.5713 11.3912 16.6801 11.3912 15.3798C11.432 14.3393 11.0586 13.707 10.272 13.2987L9.52525 12.9283V12.9274ZM12.2196 10.5586V16.9311C12.2196 17.1621 12.4068 17.3493 12.6378 17.3493H13.8785C15.6209 17.3493 16.6565 16.011 16.6565 13.708C16.6565 11.4408 15.6618 10.1404 13.8366 10.1404H12.6378C12.4068 10.1404 12.2196 10.3276 12.2196 10.5586Z" fill="#1A7AF9"/>
</g>
<defs>
<clipPath id="clip0_2_586">
<rect width="22" height="23.3621" fill="white" transform="translate(0.329956 0.5)"/>
</clipPath>
</defs>
</svg>
