<svg width="183" height="26" viewBox="0 0 183 26" fill="none" xmlns="http://www.w3.org/2000/svg">
<g clip-path="url(#clip0_2_834)">
<path d="M49.7949 23.0745C47.8496 23.0745 46.1603 22.6484 44.7251 21.7973C43.3219 20.9781 42.1777 19.7809 41.4246 18.3417C40.6764 16.8735 40.3014 15.2542 40.3014 13.4849C40.3014 11.7487 40.6764 10.1544 41.4256 8.70218C42.1747 7.26595 43.3199 6.07576 44.7261 5.27163C46.1603 4.4215 47.8496 3.99543 49.7949 3.99543C50.624 3.99543 51.5322 4.12045 52.5213 4.37049C53.5095 4.62053 54.4736 5.03059 55.4148 5.59768L55.3908 9.70434C54.8397 9.16925 54.2106 8.72218 53.5255 8.37713C52.3803 7.75103 51.0991 7.41597 49.7949 7.40097C48.4717 7.40097 47.3645 7.64301 46.4714 8.12709C45.6042 8.60016 44.9091 9.33628 44.4861 10.2294C44.04 11.1316 43.8159 12.2157 43.8159 13.4849C43.8159 14.7861 44.04 15.9053 44.4861 16.8395C44.9091 17.7326 45.6042 18.4687 46.4714 18.9428C47.3635 19.4269 48.4717 19.6689 49.7949 19.6689C51.0991 19.6529 52.3803 19.3179 53.5255 18.6928C54.2086 18.3327 54.8367 17.8766 55.3908 17.3405L55.4148 21.4712C54.4746 22.0223 53.5095 22.4314 52.5213 22.6984C51.5322 22.9484 50.624 23.0745 49.7949 23.0745ZM70.3582 19.894V22.7984H67.0346V21.6472C66.4935 22.0803 65.8885 22.4264 65.2403 22.6734C64.6032 22.9234 63.8541 23.0575 62.993 23.0735C62.1138 23.0955 61.2407 22.9254 60.4346 22.5734C59.6375 22.2063 58.9753 21.6132 58.4493 20.7961C57.9232 19.961 57.6601 18.8848 57.6601 17.5656V9.52931H60.9847V17.0665C60.9847 17.7836 61.1117 18.3597 61.3667 18.7938C61.6218 19.2278 61.9568 19.5369 62.3709 19.7199C62.786 19.8869 63.248 19.97 63.7581 19.97C64.4912 19.97 65.1453 19.8119 65.7184 19.4949C66.3085 19.1778 66.7476 18.7438 67.0346 18.1927V9.52931H70.3582V19.894ZM72.1674 18.3917C72.6935 18.7258 73.2356 19.0098 73.7937 19.2438C74.3678 19.4769 74.9259 19.6609 75.468 19.7939C75.987 19.906 76.5151 19.965 77.0462 19.969C77.7793 19.969 78.3694 19.903 78.8155 19.7689C79.2776 19.6189 79.6056 19.4439 79.7956 19.2438C79.9877 19.0438 80.0827 18.8428 80.0827 18.6428C80.0987 18.4087 79.9717 18.2087 79.7006 18.0417C79.4456 17.8746 79.0065 17.7416 78.3854 17.6416C78.0054 17.5576 77.6223 17.4916 77.2372 17.4416L76.4241 17.2905C76.1511 17.2225 75.88 17.1475 75.611 17.0655C74.5268 16.8155 73.6907 16.3724 73.1006 15.7383C72.5265 15.1042 72.2234 14.3361 72.1914 13.4349C72.1754 12.5668 72.3825 11.8247 72.8135 11.2066C73.2436 10.5885 73.8657 10.1214 74.6788 9.80435C75.508 9.4703 76.4961 9.28627 77.6443 9.25327C78.3934 9.23626 79.1425 9.28627 79.8917 9.40329C80.6418 9.52031 81.3579 9.69533 82.044 9.92937V13.4849C81.5839 13.2279 81.1049 13.0099 80.6088 12.8338C80.1117 12.6538 79.5996 12.5198 79.0785 12.4338C78.6135 12.3508 78.1394 12.3258 77.6683 12.3578C76.9502 12.3748 76.4081 12.4418 76.0421 12.5578C75.675 12.6748 75.436 12.7998 75.3239 12.9338C75.2349 13.0509 75.1779 13.1879 75.1569 13.3339C75.1569 13.5339 75.2449 13.718 75.42 13.885C75.611 14.035 75.946 14.161 76.4241 14.2611L77.2372 14.4611C77.5083 14.5111 77.7873 14.5611 78.0744 14.6111C78.2344 14.6451 78.3844 14.6781 78.5285 14.7111C78.6885 14.7281 78.8475 14.7531 79.0065 14.7861C79.8997 14.9362 80.6408 15.1962 81.2309 15.5633C81.821 15.9133 82.259 16.3474 82.5461 16.8645C82.8491 17.3656 83.0082 17.9326 83.0242 18.5677C83.0402 19.5519 82.7931 20.378 82.283 21.0461C81.773 21.7142 81.0709 22.2143 80.1787 22.5484C79.2856 22.8824 78.2494 23.0575 77.0702 23.0745C76.2731 23.0745 75.452 22.9824 74.6068 22.7984C73.7737 22.6294 72.9566 22.3863 72.1674 22.0723V18.3917ZM92.9267 12.7838H83.8153V9.52831H92.9267V12.7838ZM93.9789 22.8484C92.9907 22.9984 92.1386 23.0745 91.4205 23.0745C89.9863 23.0745 88.7341 22.6744 87.6659 21.8723C86.6137 21.0711 86.0876 19.6689 86.0876 17.6656V5.84872H89.3872V17.6666C89.3872 17.8166 89.3962 17.9426 89.4122 18.0427C89.4122 18.5927 89.4922 18.9938 89.6512 19.2448C89.8112 19.4779 90.0173 19.6369 90.2723 19.7199C90.5434 19.7869 90.9264 19.8199 91.4205 19.8199C91.7886 19.8159 92.1556 19.7909 92.5207 19.7449C92.9507 19.6949 93.4368 19.6199 93.9789 19.5199V22.8504V22.8484ZM101.405 19.8189C102.218 19.8189 102.888 19.6769 103.414 19.3939C103.927 19.1228 104.34 18.6918 104.586 18.1667C104.841 17.6166 104.969 16.9485 104.969 16.1634C104.969 15.3632 104.841 14.6951 104.586 14.161C104.349 13.628 103.934 13.1949 103.414 12.9338C102.888 12.6498 102.218 12.5078 101.405 12.5078C100.592 12.5078 99.9228 12.6498 99.3968 12.9338C98.8867 13.2009 98.5036 13.61 98.2486 14.161C97.9935 14.6951 97.8665 15.3622 97.8665 16.1634C97.8665 16.9485 97.9935 17.6156 98.2486 18.1667C98.4956 18.6918 98.9067 19.1228 99.4208 19.3939C99.9468 19.6779 100.608 19.8189 101.405 19.8189ZM101.405 23.0745C100.034 23.0745 98.8307 22.7654 97.7945 22.1483C96.7763 21.5482 95.9412 20.6831 95.3791 19.6439C94.821 18.5927 94.542 17.4326 94.542 16.1634C94.542 14.8782 94.821 13.718 95.3791 12.6828C95.9412 11.6436 96.7763 10.7775 97.7945 10.1794C98.8307 9.56231 100.034 9.25327 101.405 9.25327C102.776 9.25327 103.98 9.56231 105.017 10.1794C106.049 10.7595 106.889 11.6306 107.431 12.6838C108.005 13.735 108.292 14.8952 108.292 16.1644C108.292 17.4326 108.005 18.5927 107.431 19.6449C106.879 20.6901 106.042 21.5582 105.017 22.1483C103.98 22.7654 102.776 23.0745 101.405 23.0745ZM127.396 22.7984V9.77935L122.064 22.7984H119.41L114.077 9.77935V22.7984H110.562V4.27047H115.703L120.749 16.4894L125.771 4.27047H130.912V22.7984H127.396ZM136.635 17.4656C136.763 17.9997 136.986 18.4417 137.305 18.7928C137.624 19.1268 138.062 19.3849 138.62 19.5689C139.178 19.7359 139.879 19.8189 140.724 19.8189C141.31 19.8169 141.895 19.7589 142.47 19.6439C143.076 19.5269 143.841 19.2769 144.765 18.8938V22.3983C143.953 22.6654 143.211 22.8404 142.542 22.9244C141.887 23.0244 141.282 23.0745 140.724 23.0745C139.13 23.0745 137.759 22.7744 136.611 22.1733C135.479 21.5552 134.618 20.7291 134.028 19.6939C133.454 18.6428 133.167 17.4576 133.167 16.1384C133.167 14.8371 133.43 13.668 133.956 12.6338C134.46 11.6056 135.249 10.7455 136.229 10.1544C137.217 9.55431 138.365 9.25327 139.672 9.25327C140.867 9.25327 141.968 9.56231 142.972 10.1794C143.976 10.7975 144.742 11.7237 145.268 12.9589C145.794 14.194 145.953 15.6963 145.746 17.4656H136.635ZM142.422 14.6111C142.343 14.111 142.183 13.693 141.944 13.3599C141.711 13.0309 141.386 12.7778 141.011 12.6338C140.628 12.4668 140.182 12.3838 139.672 12.3838C139.082 12.3838 138.58 12.4668 138.165 12.6338C137.778 12.7918 137.439 13.0509 137.185 13.3839C136.93 13.702 136.747 14.111 136.635 14.6111H142.422ZM153.995 19.8189C154.809 19.8189 155.478 19.6769 156.004 19.3939C156.518 19.1228 156.929 18.6918 157.176 18.1667C157.431 17.6166 157.559 16.9485 157.559 16.1634C157.559 15.3632 157.431 14.6951 157.176 14.161C156.939 13.628 156.525 13.1949 156.004 12.9338C155.478 12.6498 154.809 12.5078 153.995 12.5078C153.182 12.5078 152.513 12.6498 151.987 12.9338C151.477 13.2009 151.094 13.61 150.839 14.161C150.584 14.6951 150.456 15.3622 150.456 16.1634C150.456 16.9485 150.584 17.6156 150.839 18.1667C151.086 18.6918 151.497 19.1228 152.011 19.3939C152.537 19.6779 153.198 19.8189 153.995 19.8189ZM153.995 23.0745C152.624 23.0745 151.421 22.7654 150.385 22.1483C149.367 21.5482 148.532 20.6831 147.969 19.6439C147.411 18.5927 147.132 17.4326 147.132 16.1634C147.132 14.8782 147.411 13.718 147.969 12.6828C148.532 11.6436 149.367 10.7775 150.385 10.1794C151.421 9.56231 152.624 9.25327 153.995 9.25327C155.367 9.25327 156.57 9.56231 157.606 10.1794C158.638 10.7595 159.478 11.6306 160.021 12.6838C160.595 13.735 160.882 14.8952 160.882 16.1644C160.882 17.4326 160.595 18.5927 160.021 19.6449C159.468 20.6901 158.631 21.5582 157.606 22.1483C156.57 22.7654 155.367 23.0745 153.995 23.0745ZM165.041 9.52931C165.184 10.0464 165.288 10.4295 165.352 10.6805C165.431 10.9305 165.543 11.3066 165.686 11.8077L167.552 18.5927L170.23 9.52831H174.368L177.021 18.5927L178.91 11.8067C179.054 11.2896 179.157 10.9065 179.221 10.6555C179.301 10.4054 179.412 10.0294 179.556 9.52831H183C182.895 9.91337 182.783 10.2974 182.665 10.6805C182.601 10.9305 182.498 11.3066 182.354 11.8077L179.269 22.7994H174.846L172.31 14.06L169.752 22.7984H165.328L162.244 11.8067C162.139 11.4206 162.027 11.0365 161.909 10.6555C161.845 10.4054 161.741 10.0294 161.598 9.52831H165.041V9.52931ZM21.2514 0.610894C23.8398 0.539883 25.054 7.555 25.412 11.8127C26.3422 13.0689 26.8673 14.4911 26.8673 15.9963C26.8673 21.0951 20.8533 25.2298 13.4331 25.2298C6.01395 25.2298 0 21.0951 0 15.9963C0 14.4521 0.552087 12.9969 1.52724 11.7177C1.8953 7.45098 3.10949 0.539883 5.6789 0.610894C7.75023 0.666903 10.1676 3.8114 11.8289 6.57984C11.8699 6.66185 11.9099 6.74187 11.9469 6.81988C12.9571 6.74287 13.9722 6.74487 14.9824 6.82488C15.0204 6.74487 15.0594 6.66385 15.1024 6.57984C16.7627 3.8124 19.18 0.667904 21.2514 0.610894Z" fill="white"/>
</g>
<defs>
<clipPath id="clip0_2_834">
<rect width="183" height="24.6199" fill="white" transform="translate(0 0.609863)"/>
</clipPath>
</defs>
</svg>
